<svg width="72" height="73" viewBox="0 0 72 73" fill="none" xmlns="http://www.w3.org/2000/svg">
<g filter="url(#filter0_dd)">
<circle cx="24" cy="30.0356" r="18" fill="url(#paint0_linear)"/>
</g>
<mask id="mask0" mask-type="alpha" maskUnits="userSpaceOnUse" x="6" y="12" width="36" height="37">
<circle cx="24" cy="30.0356" r="18" fill="url(#paint1_linear)"/>
</mask>
<g mask="url(#mask0)">
<path d="M15.6346 31.1361C14.0761 31.1361 12.615 31.4219 11.2513 31.9933C9.88763 32.5647 8.68954 33.3362 7.65704 34.3077C6.62453 35.2791 5.81607 36.4411 5.23163 37.7935C4.6472 39.1459 4.34524 40.5841 4.32576 42.1079C4.32576 43.6318 4.61798 45.0509 5.20241 46.3652C5.78684 47.6795 6.58557 48.8415 7.59859 49.851C8.61161 50.8606 9.8097 51.6511 11.1929 52.2225C12.576 52.794 14.0274 53.0797 15.5469 53.0797H49.2103C51.2753 53.0797 53.2137 52.6987 55.0255 51.9368C56.8372 51.1749 58.4249 50.1368 59.7886 48.8224C61.1523 47.5081 62.2238 45.9557 63.003 44.1651C63.7823 42.3746 64.1719 40.4698 64.1719 38.4507C64.1719 36.4315 63.7823 34.5362 63.003 32.7648C62.2238 30.9933 61.162 29.4408 59.8178 28.1075C58.4736 26.7741 56.8859 25.7264 55.0547 24.9645C53.2235 24.2026 51.2753 23.8216 49.2103 23.8216C48.3142 23.8216 47.4083 23.9073 46.4927 24.0788C45.7135 22.8978 44.8173 21.8406 43.8043 20.9072C42.7913 19.9739 41.6711 19.1738 40.4438 18.5071C39.2165 17.8405 37.9308 17.3452 36.5866 17.0214C35.2424 16.6976 33.8397 16.5261 32.3786 16.5071C30.2162 16.5071 28.1804 16.8785 26.2713 17.6214C24.3621 18.3643 22.6575 19.3834 21.1575 20.6786C19.6574 21.9739 18.4399 23.5264 17.5048 25.3359C16.5697 27.1455 15.9463 29.0789 15.6346 31.1361Z" fill="black" fill-opacity="0.1"/>
</g>
<g filter="url(#filter1_d)">
<path d="M17.3379 34.0063C15.7754 34.0063 14.3105 34.3109 12.9434 34.9203C11.5762 35.5297 10.375 36.3523 9.33984 37.3883C8.30469 38.4242 7.49414 39.6633 6.9082 41.1055C6.32227 42.5477 6.01953 44.0813 6 45.7063C6 47.3313 6.29297 48.8445 6.87891 50.2461C7.46484 51.6477 8.26562 52.8867 9.28125 53.9633C10.2969 55.0398 11.498 55.8828 12.8848 56.4922C14.2715 57.1016 15.7266 57.4062 17.25 57.4062H51C53.0703 57.4062 55.0137 57 56.8301 56.1875C58.6465 55.375 60.2383 54.268 61.6055 52.8664C62.9727 51.4648 64.0469 49.8094 64.8281 47.9C65.6094 45.9906 66 43.9594 66 41.8062C66 39.6531 65.6094 37.632 64.8281 35.743C64.0469 33.8539 62.9824 32.1984 61.6348 30.7766C60.2871 29.3547 58.6953 28.2375 56.8594 27.425C55.0234 26.6125 53.0703 26.2063 51 26.2063C50.1016 26.2063 49.1934 26.2977 48.2754 26.4805C47.4941 25.2211 46.5957 24.0937 45.5801 23.0984C44.5645 22.1031 43.4414 21.25 42.2109 20.5391C40.9805 19.8281 39.6914 19.3 38.3438 18.9547C36.9961 18.6094 35.5898 18.4266 34.125 18.4062C31.957 18.4062 29.916 18.8023 28.002 19.5945C26.0879 20.3867 24.3789 21.4734 22.875 22.8547C21.3711 24.2359 20.1504 25.8914 19.2129 27.8211C18.2754 29.7508 17.6504 31.8125 17.3379 34.0063Z" fill="url(#paint2_linear)"/>
</g>
<path d="M65.7936 40.4556C65.7936 47.4964 58.6503 51.8047 51.5776 51.8047C44.505 51.8047 38.7715 46.0969 38.7715 39.0561C38.7715 32.0153 44.505 26.3076 51.5776 26.3076C58.6503 26.3076 65.7936 33.4148 65.7936 40.4556Z" fill="url(#paint3_linear)"/>
<path d="M47.3555 30.7691C44.432 30.7691 41.8263 31.8466 39.7925 33.558C39.7925 33.558 39.729 33.558 39.729 33.6214C40.9365 31.086 43.0338 28.9943 45.576 27.7901C43.4151 25.3181 40.301 23.7969 36.7419 23.7969C30.3229 23.7969 25.175 28.9943 25.175 35.2693C25.175 36.2835 25.3021 37.2976 25.5564 38.2484C24.6666 37.9315 23.7133 37.7413 22.6964 37.7413C18.2476 37.7413 14.625 41.3542 14.625 45.7277C14.625 50.1012 18.2476 53.714 22.6964 53.714C22.76 53.714 22.8235 53.714 22.8235 53.714H47.1013C47.1648 53.714 47.2284 53.714 47.292 53.714C53.711 53.714 58.8589 48.5166 58.8589 42.2416C58.8589 35.9666 53.711 30.7691 47.3555 30.7691Z" fill="url(#paint4_linear)"/>
<g filter="url(#filter2_d)">
<path d="M26.8974 44.9441L22.3788 53.6933C22.1417 54.2616 22.002 54.8819 22.002 55.5335C22.002 56.185 22.1417 56.8054 22.3788 57.3737C22.6287 57.9607 22.9865 58.4936 23.4354 58.937C23.8864 59.3804 24.4285 59.7301 25.0256 59.9757C25.6036 60.2109 26.2346 60.3463 26.8974 60.3463C27.5622 60.3463 28.1932 60.2109 28.7691 59.9757C29.3684 59.7301 29.9083 59.3804 30.3593 58.937C30.8103 58.4936 31.1681 57.9607 31.4159 57.3737C31.6551 56.8054 31.7928 56.185 31.7928 55.5335C31.7928 54.8819 31.6551 54.2616 31.4159 53.6933L26.8974 44.9441Z" fill="#A4D4FF"/>
<path d="M27.7253 46.5525L23.7058 54.3692C23.4928 54.8799 23.3672 55.4372 23.3672 56.0227C23.3672 56.6081 23.4928 57.1655 23.7058 57.6761C23.9303 58.2036 24.2519 58.6824 24.6552 59.0808C25.0604 59.4792 25.5475 59.7934 26.084 60.0141C26.6033 60.2255 27.1703 60.347 27.7658 60.347C28.3632 60.347 28.9301 60.2255 29.4476 60.0141C29.986 59.7934 30.4711 59.4792 30.8764 59.0808C31.2816 58.6824 31.6031 58.2036 31.8257 57.6761C32.0407 57.1655 32.1644 56.6081 32.1644 56.0227C32.1644 55.4372 32.0407 54.8799 31.8257 54.3692L27.7253 46.5525Z" fill="url(#paint5_linear)"/>
</g>
<path d="M45.5339 34.6499L40.2548 44.8718C39.9777 45.5358 39.8145 46.2605 39.8145 47.0218C39.8145 47.783 39.9777 48.5078 40.2548 49.1717C40.5467 49.8576 40.9648 50.4802 41.4892 50.9982C42.0161 51.5162 42.6494 51.9248 43.347 52.2118C44.0224 52.4866 44.7596 52.6447 45.5339 52.6447C46.3107 52.6447 47.0479 52.4866 47.7207 52.2118C48.4208 51.9248 49.0516 51.5162 49.5786 50.9982C50.1055 50.4802 50.5236 49.8576 50.813 49.1717C51.0925 48.5078 51.2533 47.783 51.2533 47.0218C51.2533 46.2605 51.0925 45.5358 50.813 44.8718L45.5339 34.6499Z" fill="#A4D4FF"/>
<path d="M46.5031 36.5286L41.8039 45.6613C41.5549 46.2579 41.4082 46.9091 41.4082 47.593C41.4082 48.277 41.5549 48.9282 41.8039 49.5248C42.0661 50.141 42.4418 50.7004 42.913 51.1659C43.3864 51.6313 43.9555 51.9985 44.5823 52.2563C45.1891 52.5033 45.8515 52.6453 46.5472 52.6453C47.2451 52.6453 47.9075 52.5033 48.5121 52.2563C49.1411 51.9985 49.7079 51.6313 50.1814 51.1659C50.6548 50.7004 51.0305 50.141 51.2905 49.5248C51.5417 48.9282 51.6862 48.277 51.6862 47.593C51.6862 46.9091 51.5417 46.2579 51.2905 45.6613L46.5031 36.5286Z" fill="url(#paint6_linear)"/>
<defs>
<filter id="filter0_dd" x="4" y="10.0356" width="40" height="42" filterUnits="userSpaceOnUse" color-interpolation-filters="sRGB">
<feFlood flood-opacity="0" result="BackgroundImageFix"/>
<feColorMatrix in="SourceAlpha" type="matrix" values="0 0 0 0 0 0 0 0 0 0 0 0 0 0 0 0 0 0 127 0"/>
<feOffset/>
<feGaussianBlur stdDeviation="1"/>
<feColorMatrix type="matrix" values="0 0 0 0 0.996078 0 0 0 0 0.878431 0 0 0 0 0.411765 0 0 0 1 0"/>
<feBlend mode="normal" in2="BackgroundImageFix" result="effect1_dropShadow"/>
<feColorMatrix in="SourceAlpha" type="matrix" values="0 0 0 0 0 0 0 0 0 0 0 0 0 0 0 0 0 0 127 0"/>
<feOffset dy="2"/>
<feGaussianBlur stdDeviation="1"/>
<feColorMatrix type="matrix" values="0 0 0 0 0 0 0 0 0 0 0 0 0 0 0 0 0 0 0.25 0"/>
<feBlend mode="normal" in2="effect1_dropShadow" result="effect2_dropShadow"/>
<feBlend mode="normal" in="SourceGraphic" in2="effect2_dropShadow" result="shape"/>
</filter>
<filter id="filter1_d" x="4" y="18.4062" width="64" height="43" filterUnits="userSpaceOnUse" color-interpolation-filters="sRGB">
<feFlood flood-opacity="0" result="BackgroundImageFix"/>
<feColorMatrix in="SourceAlpha" type="matrix" values="0 0 0 0 0 0 0 0 0 0 0 0 0 0 0 0 0 0 127 0"/>
<feOffset dy="2"/>
<feGaussianBlur stdDeviation="1"/>
<feColorMatrix type="matrix" values="0 0 0 0 0 0 0 0 0 0 0 0 0 0 0 0 0 0 0.25 0"/>
<feBlend mode="normal" in2="BackgroundImageFix" result="effect1_dropShadow"/>
<feBlend mode="normal" in="SourceGraphic" in2="effect1_dropShadow" result="shape"/>
</filter>
<filter id="filter2_d" x="20.002" y="44.9441" width="14.1624" height="19.4029" filterUnits="userSpaceOnUse" color-interpolation-filters="sRGB">
<feFlood flood-opacity="0" result="BackgroundImageFix"/>
<feColorMatrix in="SourceAlpha" type="matrix" values="0 0 0 0 0 0 0 0 0 0 0 0 0 0 0 0 0 0 127 0"/>
<feOffset dy="2"/>
<feGaussianBlur stdDeviation="1"/>
<feColorMatrix type="matrix" values="0 0 0 0 0 0 0 0 0 0 0 0 0 0 0 0 0 0 0.25 0"/>
<feBlend mode="normal" in2="BackgroundImageFix" result="effect1_dropShadow"/>
<feBlend mode="normal" in="SourceGraphic" in2="effect1_dropShadow" result="shape"/>
</filter>
<linearGradient id="paint0_linear" x1="11.0625" y1="17.0981" x2="41.9979" y2="44.9957" gradientUnits="userSpaceOnUse">
<stop offset="0.0653907" stop-color="#FFE975"/>
<stop offset="0.364583" stop-color="#FFB729"/>
<stop offset="0.595906" stop-color="#FF9900"/>
</linearGradient>
<linearGradient id="paint1_linear" x1="11.0625" y1="17.0981" x2="41.9979" y2="44.9957" gradientUnits="userSpaceOnUse">
<stop offset="0.0653907" stop-color="#FFE975"/>
<stop offset="0.364583" stop-color="#FFB729"/>
<stop offset="0.595906" stop-color="#FF9900"/>
</linearGradient>
<linearGradient id="paint2_linear" x1="8.98137" y1="21.5367" x2="65.8196" y2="55.4111" gradientUnits="userSpaceOnUse">
<stop stop-color="white"/>
<stop offset="0.387304" stop-color="#C6EBFF"/>
<stop offset="0.96875" stop-color="#96C6E0"/>
</linearGradient>
<linearGradient id="paint3_linear" x1="47.1869" y1="26.6719" x2="50.4518" y2="41.2479" gradientUnits="userSpaceOnUse">
<stop offset="0.265243" stop-color="#F4F8FA"/>
<stop offset="0.899425" stop-color="#F4F8FA" stop-opacity="0"/>
</linearGradient>
<linearGradient id="paint4_linear" x1="18.7284" y1="30.7541" x2="44.0802" y2="56.2468" gradientUnits="userSpaceOnUse">
<stop offset="0.0589154" stop-color="#98DAFE"/>
<stop offset="0.751885" stop-color="#E7F6FF"/>
<stop offset="1" stop-color="#BCE6FF"/>
</linearGradient>
<linearGradient id="paint5_linear" x1="22.3972" y1="56.2463" x2="32.6547" y2="51.4553" gradientUnits="userSpaceOnUse">
<stop offset="0.395833" stop-color="#6BB5F8"/>
<stop offset="1" stop-color="#2696EF"/>
</linearGradient>
<linearGradient id="paint6_linear" x1="40.275" y1="47.8542" x2="52.2592" y2="42.2568" gradientUnits="userSpaceOnUse">
<stop offset="0.395833" stop-color="#6BB5F8"/>
<stop offset="1" stop-color="#2696EF"/>
</linearGradient>
</defs>
</svg>
